<svg width="196" height="64" viewBox="0 0 196 64" fill="none" xmlns="http://www.w3.org/2000/svg">
<rect y="1.0213" width="104" height="61.9575" rx="15.4894" fill="#00ADB5"/>
<path d="M40.7194 47L28.3922 33.3413V47H24.4836V17.0626H28.3922V30.936L40.7623 17.0626H45.7018L32.129 32.0528L45.8306 47H40.7194ZM48.7356 35.1453C48.7356 32.74 49.2224 30.6354 50.1959 28.8314C51.1695 26.9988 52.501 25.5814 54.1905 24.5791C55.9085 23.5769 57.8127 23.0758 59.903 23.0758C61.9647 23.0758 63.7544 23.5197 65.272 24.4073C66.7897 25.295 67.9207 26.4118 68.6652 27.7576V23.4624H72.6168V47H68.6652V42.6189C67.8921 43.9934 66.7324 45.1388 65.1861 46.0551C63.6685 46.9427 61.8931 47.3866 59.8601 47.3866C57.7698 47.3866 55.8799 46.8711 54.1905 45.8403C52.501 44.8095 51.1695 43.3634 50.1959 41.5022C49.2224 39.6409 48.7356 37.522 48.7356 35.1453ZM68.6652 35.1882C68.6652 33.4129 68.3073 31.8666 67.5914 30.5494C66.8756 29.2323 65.902 28.2301 64.6707 27.5428C63.468 26.827 62.1365 26.469 60.6762 26.469C59.2158 26.469 57.8843 26.8126 56.6817 27.4999C55.479 28.1871 54.5197 29.1893 53.8039 30.5065C53.088 31.8237 52.7301 33.37 52.7301 35.1453C52.7301 36.9493 53.088 38.5242 53.8039 39.87C54.5197 41.1872 55.479 42.2037 56.6817 42.9196C57.8843 43.6068 59.2158 43.9504 60.6762 43.9504C62.1365 43.9504 63.468 43.6068 64.6707 42.9196C65.902 42.2037 66.8756 41.1872 67.5914 39.87C68.3073 38.5242 68.6652 36.9636 68.6652 35.1882ZM77.7616 35.1453C77.7616 32.74 78.2484 30.6354 79.222 28.8314C80.1955 26.9988 81.5271 25.5814 83.2165 24.5791C84.9346 23.5769 86.8388 23.0758 88.9291 23.0758C90.9908 23.0758 92.7804 23.5197 94.2981 24.4073C95.8157 25.295 96.9468 26.4118 97.6913 27.7576V23.4624H101.643V47H97.6913V42.6189C96.9181 43.9934 95.7584 45.1388 94.2122 46.0551C92.6945 46.9427 90.9192 47.3866 88.8861 47.3866C86.7958 47.3866 84.9059 46.8711 83.2165 45.8403C81.5271 44.8095 80.1955 43.3634 79.222 41.5022C78.2484 39.6409 77.7616 37.522 77.7616 35.1453ZM97.6913 35.1882C97.6913 33.4129 97.3333 31.8666 96.6175 30.5494C95.9016 29.2323 94.928 28.2301 93.6967 27.5428C92.4941 26.827 91.1626 26.469 89.7022 26.469C88.2419 26.469 86.9103 26.8126 85.7077 27.4999C84.505 28.1871 83.5458 29.1893 82.8299 30.5065C82.1141 31.8237 81.7561 33.37 81.7561 35.1453C81.7561 36.9493 82.1141 38.5242 82.8299 39.87C83.5458 41.1872 84.505 42.2037 85.7077 42.9196C86.9103 43.6068 88.2419 43.9504 89.7022 43.9504C91.1626 43.9504 92.4941 43.6068 93.6967 42.9196C94.928 42.2037 95.9016 41.1872 96.6175 39.87C97.3333 38.5242 97.6913 36.9636 97.6913 35.1882Z" fill="#222831"/>
<path d="M112.157 27.9294C112.844 26.3831 113.817 25.1805 115.077 24.3214C116.366 23.4624 117.926 23.0329 119.759 23.0329V27.0704H118.728C114.347 27.0704 112.157 29.447 112.157 34.2004V47H108.248V23.4624H112.157V27.9294ZM125.86 23.4624L133.162 42.4471L140.507 23.4624H144.544L130.37 58.0816H126.29L130.972 46.7423L121.479 23.4624H125.86ZM147.013 35.1453C147.013 32.74 147.5 30.6354 148.473 28.8314C149.447 26.9988 150.778 25.5814 152.468 24.5791C154.186 23.5769 156.09 23.0758 158.181 23.0758C160.242 23.0758 162.032 23.5197 163.549 24.4073C165.067 25.295 166.198 26.4118 166.943 27.7576V23.4624H170.894V47H166.943V42.6189C166.17 43.9934 165.01 45.1388 163.464 46.0551C161.946 46.9427 160.171 47.3866 158.138 47.3866C156.047 47.3866 154.157 46.8711 152.468 45.8403C150.778 44.8095 149.447 43.3634 148.473 41.5022C147.5 39.6409 147.013 37.522 147.013 35.1453ZM166.943 35.1882C166.943 33.4129 166.585 31.8666 165.869 30.5494C165.153 29.2323 164.179 28.2301 162.948 27.5428C161.746 26.827 160.414 26.469 158.954 26.469C157.493 26.469 156.162 26.8126 154.959 27.4999C153.756 28.1871 152.797 29.1893 152.081 30.5065C151.365 31.8237 151.008 33.37 151.008 35.1453C151.008 36.9493 151.365 38.5242 152.081 39.87C152.797 41.1872 153.756 42.2037 154.959 42.9196C156.162 43.6068 157.493 43.9504 158.954 43.9504C160.414 43.9504 161.746 43.6068 162.948 42.9196C164.179 42.2037 165.153 41.1872 165.869 39.87C166.585 38.5242 166.943 36.9636 166.943 35.1882Z" fill="white"/>
</svg>
